<svg width="22" height="20" viewBox="0 0 22 20" fill="none" xmlns="http://www.w3.org/2000/svg">
<path d="M20.6305 2.53592C19.3509 0.931245 17.5524 0 15.854 0C13.6118 0 12.6634 1.07343 11.1056 1.07343C9.49936 1.07343 8.27905 0.00312513 6.34 0.00312513C4.43533 0.00312513 2.40721 1.16718 1.12128 3.15779C-0.686519 5.9609 -0.377146 11.2312 2.55252 15.7202C3.60096 17.3265 5.00095 19.1327 6.83219 19.1483C8.46186 19.164 8.92124 18.103 11.129 18.0921C13.3368 18.0796 13.7556 19.1624 15.3821 19.1452C17.2149 19.1311 18.6915 17.1296 19.7399 15.5234C20.4915 14.3718 20.7712 13.7921 21.354 12.4921C17.1149 10.8781 16.4353 4.84997 20.6305 2.53592Z" fill="black"/>
</svg>
